<?xml version="1.0" standalone="no"?>
<!DOCTYPE svg PUBLIC "-//W3C//DTD SVG 1.1//EN" "http://www.w3.org/Graphics/SVG/1.1/DTD/svg11.dtd">
<svg version="1.1" xmlns="http://www.w3.org/2000/svg" viewBox="0 0 347.20001220703125 234.40000915527344" width="347.20001220703125" height="234.40000915527344"><!-- svg-source:excalidraw --><metadata></metadata><defs><style class="style-fonts">
      </style></defs><g transform="translate(90 60.40003967285156) rotate(0 22.399993896484375 25.99999237060547)" stroke="none"><path fill="#d0f9ff" d="M 4.27,-0.20 Q 4.27,-0.20 4.28,4.63 4.29,9.47 4.23,13.88 4.17,18.28 3.88,22.55 3.60,26.81 3.42,31.06 3.25,35.31 3.28,38.96 3.30,42.61 5.11,44.69 6.91,46.77 9.62,46.95 12.32,47.12 15.90,47.34 19.47,47.55 23.30,47.72 27.13,47.89 31.51,48.10 35.90,48.31 38.23,48.15 40.56,47.99 42.69,47.87 44.81,47.75 45.49,47.87 46.16,47.98 46.77,48.30 47.37,48.63 47.84,49.13 48.31,49.63 48.60,50.25 48.88,50.87 48.96,51.56 49.03,52.24 48.88,52.91 48.73,53.58 48.37,54.16 48.02,54.75 47.49,55.19 46.97,55.64 46.33,55.89 45.69,56.14 45.01,56.17 44.32,56.21 43.66,56.02 43.00,55.84 42.44,55.45 41.87,55.06 41.46,54.52 41.04,53.97 40.82,53.32 40.61,52.67 40.61,51.98 40.61,51.30 40.83,50.65 41.05,50.00 41.47,49.45 41.89,48.91 42.46,48.52 43.03,48.14 43.69,47.96 44.35,47.78 45.04,47.82 45.72,47.86 46.36,48.11 46.99,48.37 47.51,48.81 48.04,49.26 48.39,49.85 48.74,50.44 48.88,51.11 49.03,51.78 48.95,52.46 48.88,53.14 48.59,53.77 48.30,54.39 47.82,54.88 47.35,55.38 46.74,55.70 46.14,56.02 45.46,56.13 44.78,56.24 44.78,56.24 44.78,56.24 42.66,56.11 40.53,55.98 38.20,55.80 35.87,55.62 31.44,55.79 27.02,55.95 23.11,56.02 19.20,56.09 15.38,56.06 11.56,56.04 7.71,55.66 3.85,55.28 0.54,53.02 -2.75,50.75 -2.98,46.65 -3.20,42.55 -3.11,38.87 -3.01,35.19 -3.03,30.85 -3.04,26.51 -2.95,22.47 -2.86,18.44 -3.11,14.14 -3.37,9.84 -3.82,5.02 -4.27,0.20 -4.23,-0.31 -4.20,-0.82 -4.04,-1.31 -3.88,-1.80 -3.60,-2.24 -3.33,-2.68 -2.96,-3.04 -2.59,-3.40 -2.15,-3.66 -1.70,-3.92 -1.21,-4.07 -0.71,-4.22 -0.20,-4.24 0.31,-4.27 0.82,-4.17 1.32,-4.07 1.79,-3.85 2.26,-3.63 2.66,-3.31 3.06,-2.98 3.37,-2.57 3.69,-2.16 3.89,-1.69 4.10,-1.22 4.19,-0.71 4.27,-0.20 4.27,-0.20 L 4.27,-0.20 Z"></path></g><g transform="translate(144.39996337890625 139.60003662109375) rotate(0 30.399993896484375 16.400009155273438)" stroke="none"><path fill="#d0f9ff" d="M 4.59,-1.43 Q 4.59,-1.43 5.57,2.29 6.55,6.03 7.48,9.23 8.41,12.43 9.78,14.99 11.14,17.56 12.40,15.60 13.65,13.64 15.44,11.16 17.23,8.68 18.75,6.69 20.28,4.71 20.74,4.23 21.19,3.76 21.75,3.40 22.31,3.05 22.94,2.84 23.56,2.64 24.22,2.58 24.88,2.53 25.53,2.64 26.18,2.74 26.78,3.00 27.39,3.26 27.92,3.66 28.44,4.05 28.86,4.56 29.28,5.08 29.56,5.67 29.84,6.27 29.97,6.91 30.11,7.56 30.08,8.22 30.05,8.88 29.87,9.51 29.68,10.14 29.35,10.71 29.02,11.29 29.91,9.04 30.79,6.79 32.55,10.04 34.30,13.30 35.93,16.97 37.56,20.63 39.27,23.30 40.98,25.97 39.75,27.92 38.53,29.87 42.04,24.83 45.56,19.79 48.09,16.32 50.62,12.85 52.28,9.83 53.93,6.80 55.60,4.16 57.26,1.51 57.75,1.01 58.24,0.51 58.86,0.20 59.49,-0.11 60.18,-0.21 60.87,-0.31 61.56,-0.19 62.24,-0.06 62.86,0.27 63.47,0.60 63.94,1.12 64.41,1.63 64.69,2.27 64.97,2.91 65.04,3.61 65.10,4.30 64.94,4.98 64.78,5.66 64.41,6.25 64.04,6.85 63.50,7.29 62.96,7.73 62.30,7.98 61.65,8.23 60.95,8.25 60.25,8.28 59.58,8.08 58.91,7.88 58.34,7.48 57.77,7.08 57.36,6.51 56.95,5.95 56.73,5.29 56.52,4.62 56.53,3.92 56.55,3.22 56.78,2.56 57.02,1.91 57.45,1.36 57.88,0.81 58.47,0.43 59.05,0.05 59.73,-0.12 60.40,-0.29 61.10,-0.24 61.80,-0.20 62.44,0.06 63.08,0.33 63.61,0.80 64.13,1.26 64.48,1.86 64.83,2.47 64.97,3.15 65.11,3.84 65.02,4.53 64.93,5.22 64.63,5.85 64.33,6.48 64.33,6.48 64.33,6.48 62.68,8.54 61.04,10.60 59.30,13.94 57.56,17.29 55.35,21.22 53.14,25.15 51.09,28.51 49.04,31.86 47.63,33.68 46.21,35.50 41.53,35.23 36.86,34.96 35.10,33.06 33.34,31.16 31.21,28.10 29.07,25.05 27.08,21.75 25.08,18.45 23.72,16.12 22.35,13.80 21.32,9.25 20.28,4.71 20.74,4.23 21.19,3.76 21.75,3.41 22.31,3.05 22.93,2.84 23.56,2.64 24.22,2.58 24.87,2.53 25.53,2.64 26.18,2.74 26.78,3.00 27.39,3.26 27.92,3.66 28.44,4.05 28.86,4.56 29.28,5.07 29.56,5.67 29.84,6.27 29.97,6.91 30.11,7.56 30.08,8.22 30.05,8.88 29.87,9.51 29.68,10.14 29.35,10.71 29.02,11.29 27.36,12.93 25.69,14.58 24.04,17.03 22.40,19.47 21.03,21.45 19.67,23.43 17.56,25.62 15.44,27.80 13.11,27.98 10.79,28.17 8.70,26.95 6.62,25.73 5.04,23.71 3.46,21.68 1.71,18.33 -0.02,14.98 -0.98,11.83 -1.95,8.68 -3.27,5.06 -4.59,1.43 -4.69,0.86 -4.80,0.29 -4.76,-0.28 -4.73,-0.86 -4.56,-1.41 -4.39,-1.97 -4.09,-2.46 -3.79,-2.96 -3.38,-3.37 -2.97,-3.78 -2.47,-4.08 -1.97,-4.38 -1.42,-4.56 -0.87,-4.73 -0.29,-4.76 0.28,-4.80 0.85,-4.70 1.42,-4.59 1.95,-4.35 2.48,-4.12 2.94,-3.76 3.40,-3.40 3.75,-2.94 4.11,-2.49 4.35,-1.96 4.59,-1.43 4.59,-1.43 L 4.59,-1.43 Z"></path></g><g transform="translate(234.79998779296875 63.60003662109375) rotate(0 0.79998779296875 27.600006103515625)" stroke="none"><path fill="#d0f9ff" d="M 3.87,-0.45 Q 3.87,-0.45 4.24,3.46 4.61,7.38 4.67,12.41 4.73,17.44 4.70,22.55 4.68,27.66 4.64,32.12 4.59,36.59 4.55,41.25 4.51,45.91 4.73,48.58 4.95,51.24 5.15,53.22 5.36,55.19 5.26,55.79 5.17,56.39 4.88,56.93 4.60,57.47 4.16,57.89 3.72,58.31 3.16,58.56 2.61,58.82 2.01,58.89 1.40,58.96 0.80,58.83 0.21,58.70 -0.30,58.38 -0.83,58.07 -1.22,57.61 -1.62,57.14 -1.84,56.58 -2.07,56.01 -2.11,55.40 -2.14,54.80 -1.98,54.21 -1.82,53.62 -1.48,53.12 -1.14,52.61 -0.65,52.24 -0.17,51.87 0.40,51.68 0.98,51.48 1.59,51.48 2.20,51.48 2.77,51.67 3.35,51.86 3.84,52.23 4.32,52.60 4.67,53.10 5.01,53.61 5.17,54.19 5.34,54.78 5.31,55.39 5.28,56.00 5.05,56.56 4.83,57.13 4.43,57.60 4.04,58.06 3.52,58.38 3.00,58.69 2.40,58.82 1.81,58.96 1.20,58.89 0.60,58.83 0.04,58.57 -0.50,58.32 -0.95,57.90 -1.39,57.48 -1.68,56.94 -1.96,56.41 -2.06,55.80 -2.16,55.20 -2.16,55.20 -2.16,55.20 -1.96,53.23 -1.76,51.26 -1.56,48.59 -1.35,45.93 -1.42,41.28 -1.50,36.64 -1.61,32.20 -1.73,27.76 -1.92,22.74 -2.11,17.72 -2.44,12.98 -2.77,8.25 -3.32,4.35 -3.87,0.45 -3.86,-0.01 -3.86,-0.48 -3.75,-0.93 -3.63,-1.39 -3.41,-1.81 -3.19,-2.22 -2.88,-2.57 -2.57,-2.92 -2.18,-3.19 -1.79,-3.45 -1.35,-3.62 -0.91,-3.78 -0.45,-3.84 0.01,-3.89 0.48,-3.83 0.94,-3.78 1.38,-3.61 1.82,-3.44 2.20,-3.17 2.59,-2.90 2.90,-2.55 3.21,-2.20 3.43,-1.78 3.64,-1.36 3.75,-0.91 3.87,-0.45 3.87,-0.45 L 3.87,-0.45 Z"></path></g><g transform="translate(216.39996337890625 64.40003967285156) rotate(0 24.399993896484375 -2.4000015258789062)" stroke="none"><path fill="#d0f9ff" d="M -0.61,-3.66 Q -0.61,-3.66 3.55,-4.22 7.71,-4.78 12.49,-5.42 17.27,-6.07 21.65,-6.54 26.02,-7.02 30.27,-7.23 34.51,-7.44 38.62,-7.54 42.72,-7.64 45.72,-7.89 48.71,-8.14 49.25,-8.06 49.79,-7.99 50.27,-7.75 50.75,-7.51 51.14,-7.12 51.52,-6.74 51.76,-6.25 52.00,-5.77 52.07,-5.23 52.14,-4.70 52.04,-4.16 51.93,-3.63 51.66,-3.16 51.40,-2.69 50.99,-2.33 50.59,-1.97 50.09,-1.76 49.59,-1.55 49.05,-1.50 48.51,-1.46 47.99,-1.59 47.46,-1.73 47.01,-2.02 46.55,-2.31 46.22,-2.73 45.88,-3.16 45.69,-3.67 45.51,-4.17 45.49,-4.71 45.48,-5.26 45.64,-5.77 45.80,-6.29 46.12,-6.73 46.44,-7.17 46.88,-7.48 47.32,-7.80 47.83,-7.95 48.35,-8.11 48.89,-8.09 49.43,-8.08 49.94,-7.89 50.45,-7.70 50.87,-7.36 51.29,-7.02 51.58,-6.57 51.87,-6.11 52.00,-5.58 52.13,-5.06 52.08,-4.52 52.04,-3.98 51.82,-3.48 51.61,-2.99 51.25,-2.58 50.88,-2.18 50.41,-1.92 49.94,-1.65 49.41,-1.55 48.88,-1.45 48.88,-1.45 48.88,-1.45 45.87,-1.55 42.87,-1.66 38.86,-1.56 34.85,-1.46 30.82,-1.20 26.80,-0.94 22.54,-0.32 18.28,0.30 13.56,1.16 8.84,2.02 4.72,2.84 0.61,3.66 0.16,3.68 -0.28,3.70 -0.72,3.61 -1.16,3.52 -1.56,3.33 -1.97,3.14 -2.32,2.86 -2.66,2.58 -2.93,2.22 -3.20,1.87 -3.38,1.45 -3.56,1.04 -3.63,0.60 -3.71,0.16 -3.67,-0.28 -3.64,-0.72 -3.50,-1.15 -3.36,-1.57 -3.12,-1.95 -2.88,-2.33 -2.56,-2.64 -2.24,-2.96 -1.85,-3.18 -1.46,-3.41 -1.03,-3.53 -0.61,-3.66 -0.61,-3.66 L -0.61,-3.66 Z"></path></g><g stroke-linecap="round" transform="translate(10 10) rotate(0 163.60000610351562 107.20000457763672)"><path d="M87.47 12.11 C101.32 5.3, 121.43 2.61, 138.92 0.77 C156.41 -1.08, 175.21 -1.17, 192.4 1.01 C209.6 3.2, 226.79 8.17, 242.1 13.87 C257.4 19.57, 272.07 26.77, 284.23 35.22 C296.38 43.66, 307.96 53.78, 315.03 64.56 C322.09 75.34, 325.34 88.21, 326.62 99.92 C327.9 111.63, 327.12 123.59, 322.71 134.81 C318.3 146.03, 310.24 157.58, 300.15 167.25 C290.07 176.91, 276.29 185.75, 262.22 192.81 C248.16 199.87, 232.44 205.87, 215.75 209.61 C199.06 213.35, 179.73 215.59, 162.08 215.27 C144.42 214.95, 126.56 211.6, 109.84 207.68 C93.12 203.77, 75.84 198.72, 61.76 191.76 C47.67 184.8, 35.01 175.79, 25.34 165.94 C15.68 156.08, 7.86 144.19, 3.77 132.61 C-0.33 121.04, -0.9 108.13, 0.78 96.48 C2.46 84.84, 6.73 73.28, 13.84 62.76 C20.96 52.25, 29.64 42.18, 43.47 33.41 C57.31 24.63, 85.83 14.37, 96.85 10.12 C107.88 5.87, 108.45 6.47, 109.61 7.9 M205.18 5.05 C222.39 6.42, 241.67 12.88, 256.62 19.14 C271.58 25.4, 284.64 33.54, 294.91 42.6 C305.18 51.66, 312.87 62.23, 318.22 73.51 C323.56 84.8, 327.33 98.36, 326.98 110.28 C326.63 122.2, 322.1 134.23, 316.12 145.03 C310.13 155.83, 301.98 166.52, 291.05 175.1 C280.13 183.68, 265.35 190.29, 250.57 196.5 C235.8 202.71, 219.38 209.4, 202.41 212.34 C185.44 215.29, 166.55 215.37, 148.74 214.19 C130.92 213, 112.01 210.19, 95.52 205.24 C79.03 200.28, 62.88 192.42, 49.8 184.46 C36.72 176.51, 25.09 167.67, 17.05 157.53 C9.02 147.39, 3.75 135.02, 1.59 123.64 C-0.57 112.26, 0.63 100.74, 4.1 89.27 C7.57 77.79, 13.86 64.97, 22.42 54.81 C30.98 44.64, 42.3 35.91, 55.45 28.25 C68.61 20.59, 85.12 13.41, 101.35 8.84 C117.58 4.27, 135.11 1.74, 152.82 0.81 C170.53 -0.12, 198.87 2.48, 207.62 3.24 C216.36 4, 205.97 3.54, 205.29 5.36" stroke="#d0f9ff" stroke-width="2" fill="none"></path></g></svg>